<?xml version="1.0" encoding="utf-8"?>
<!-- Generator: Adobe Illustrator 19.1.0, SVG Export Plug-In . SVG Version: 6.00 Build 0)  -->
<svg version="1.1" id="Layer_1" xmlns="http://www.w3.org/2000/svg" xmlns:xlink="http://www.w3.org/1999/xlink" x="0px" y="0px"
	 viewBox="0 0 800 201.5" style="enable-background:new 0 0 800 201.5;" xml:space="preserve">
<style type="text/css">
	.st0{fill:none;stroke:#231F20;stroke-miterlimit:10;}
	.st1{stroke:#231F20;stroke-miterlimit:10;}
</style>
<g>
	<path class="st0" d="M139.5,25v35.9h-11.1c-2.7,0-3.9-0.7-4.3-2.3c-0.5-1.6-1.4-6.4-2.3-15H83.7v127.6c0,0,0.9,0,2.7,0.5
		c5.9,1.1,9.8,1.8,11.3,2.3c1.6,0.5,2.3,1.8,2.3,4.1v9.5H45.1V178c0-2.3,1.4-4.1,3.9-4.5c2.5-0.5,6.6-1.4,12.5-2.5V43.4H23.1
		C22.2,52,21.5,57,21,58.6c-0.5,1.6-1.8,2.3-4.5,2.3H5.6V25h122.6h7.7H139.5z"/>
	<path class="st1" d="M316.1,41.4V171c7.3,1.4,11.8,2.3,13.6,2.7c1.8,0.5,2.7,1.8,2.7,4.1v9.8h-54.9v-9.8c0-2.3,1.4-3.9,3.6-4.3
		l12.7-2.5v-57.4h-87.6V171c10.9,2.3,16.3,4.5,16.3,6.8v9.8h-54.7v-9.8c0-2.3,1.1-3.9,3.4-4.3l12.9-2.5V41.4
		c-7.3-1.4-11.8-2.3-13.6-2.7c-1.8-0.5-2.7-1.8-2.7-4.1V25h54.7v9.5c0,2.3-0.7,3.6-2.3,4.1c-1.6,0.5-6.1,1.4-13.8,2.7v56.1h87.6
		V41.4c-7.3-1.4-11.8-2.3-13.6-2.7c-1.8-0.5-2.7-1.8-2.7-4.1V25h54.9v9.5c0,2.3-1.1,3.9-3.4,4.3L316.1,41.4z"/>
	<path class="st1" d="M480.9,25v39.3H470c-2.7,0-4.3-1.1-4.8-3.9c0-0.7-0.7-6.6-1.6-17.5h-60.8v54h59.9v17.3h-59.9v55.6h60.8
		c0.9-10,1.4-15.7,1.4-16.3c0.5-2.7,2.3-3.6,5-3.6h10.9v37.7H364.2V178c0-2.3,1.1-3.9,3.4-4.3l12.9-2.5V41.6
		c-7.3-1.4-11.6-2.3-12.9-2.7c-2.3-0.5-3.4-2-3.4-4.3V25H480.9z"/>
	<path class="st1" d="M649.1,173.5c2,0.5,3.4,2,3.4,4.1v10h-4.1h-12.3h-7.3c-4.1,0-6.8-1.6-8.6-4.8L578,124.7
		c-1.4-1.8-2.7-3-4.1-3.9c-1.4-0.9-3.6-1.4-6.8-1.4h-14.5v51.3c0,0,10.9,2.3,12.7,2.7c2,0.5,3.6,2,3.6,4.1v9.8h-16.3h-22h-16.3v-9.8
		c0-2,1.4-3.6,3.4-4.1c2-0.5,13.2-2.7,13.2-2.7V41.4c0,0-11.1-2.3-13.2-2.7c-2-0.5-3.4-2-3.4-4.1v-10h16.3h43.8
		c10.4,0,19.3,1.1,26.8,3.2c7.5,2,13.6,5,18.6,9.1c5,4.1,8.6,8.9,10.9,14.3c2.3,5.4,3.4,12,3.4,18.8c0,5.9-0.9,10.9-2.7,15.9
		c-1.8,5-4.5,9.5-7.9,13.6c-3.4,4.1-7.5,7.5-12.5,10.2c-5,2.7-10.4,5.2-16.8,6.6c2.7,1.6,5,3.6,7.3,6.8l35.2,48.1
		c1.4,0.2,10.9,1.8,12.7,2.3H649.1z M573,103.6c6.4,0,12-0.7,17-2.3s9.1-4.1,12.3-6.8c3.2-2.7,5.7-5.9,7.5-10
		c1.8-4.1,2.5-8.4,2.5-13.2c0-9.5-3.2-16.8-9.5-21.8c-6.4-5-15.7-7.3-28.4-7.3h-22v61.3h20.9H573z"/>
	<path class="st1" d="M800,25v39.3h-10.9c-2.7,0-4.3-1.1-4.8-3.9c0-0.7-0.7-6.6-1.6-17.5h-60.8v54h59.9v17.3h-59.9v55.6h60.8
		c0.9-10,1.4-15.7,1.4-16.3c0.5-2.7,2.3-3.6,5-3.6H800v37.7H683.3V178c0-2.3,1.1-3.9,3.4-4.3l12.9-2.5V41.6
		c-7.3-1.4-11.6-2.3-12.9-2.7c-2.3-0.5-3.4-2-3.4-4.3V25H800z"/>
</g>
<rect x="64.6" y="-15" transform="matrix(0.8097 0.5869 -0.5869 0.8097 73.7096 -25.8139)" width="24.1" height="231.4"/>
<g>
</g>
<g>
</g>
<g>
</g>
<g>
</g>
<g>
</g>
<g>
</g>
<g>
</g>
<g>
</g>
<g>
</g>
<g>
</g>
<g>
</g>
<g>
</g>
<g>
</g>
<g>
</g>
<g>
</g>
</svg>
